<?xml version="1.0" standalone="no"?>
<!DOCTYPE svg PUBLIC "-//W3C//DTD SVG 20010904//EN"
 "http://www.w3.org/TR/2001/REC-SVG-20010904/DTD/svg10.dtd">
<svg version="1.0" xmlns="http://www.w3.org/2000/svg"
 width="512.000000pt" height="512.000000pt" viewBox="0 0 512.000000 512.000000"
 preserveAspectRatio="xMidYMid meet">
<metadata>
Created by potrace 1.14, written by Peter Selinger 2001-2017
</metadata>
<g transform="translate(0.000000,512.000000) scale(0.100000,-0.100000)"
fill="#000000" stroke="none">
<path d="M1335 3853 c-49 -11 -76 -27 -81 -49 -9 -35 10 -51 82 -74 128 -39
166 -73 166 -148 0 -59 19 7 -274 -957 -132 -434 -251 -811 -266 -838 -34 -63
-89 -98 -209 -132 -54 -15 -110 -34 -125 -41 -31 -16 -47 -59 -29 -77 9 -9
161 -12 589 -13 623 -1 632 0 632 50 0 34 -25 51 -120 80 -107 32 -147 57
-166 102 -14 32 -13 43 5 112 19 77 421 1409 487 1617 41 130 80 205 114 222
63 32 216 -1 286 -61 91 -78 128 -196 128 -411 1 -126 -3 -162 -22 -228 -32
-110 -83 -214 -146 -293 -99 -125 -178 -170 -371 -209 -148 -31 -175 -47 -159
-92 15 -43 47 -53 170 -53 486 -1 895 278 995 680 27 106 23 282 -9 370 -79
224 -239 365 -482 426 -80 20 -95 21 -755 13 -154 -2 -311 0 -350 3 -38 3 -79
4 -90 1z"/>
<path d="M4123 3086 c-12 -9 -36 -48 -54 -86 -17 -39 -36 -70 -42 -70 -5 0
-25 14 -44 30 -44 39 -121 78 -171 86 -131 21 -411 -233 -818 -741 -231 -288
-344 -496 -344 -632 0 -44 31 -104 71 -137 172 -145 459 -4 818 401 170 191
187 189 101 -11 -60 -141 -80 -206 -80 -262 0 -36 7 -49 45 -92 108 -120 229
-122 430 -6 272 158 496 426 416 498 -21 19 -21 18 -101 -58 -126 -120 -215
-169 -260 -141 -8 5 -11 21 -7 44 2 20 84 257 181 526 97 270 176 500 176 512
0 85 -244 191 -317 139z m-337 -302 c75 -39 134 -101 134 -140 0 -92 -208
-384 -435 -610 -182 -182 -275 -219 -332 -134 -62 91 13 368 158 581 97 143
318 318 415 328 6 0 33 -11 60 -25z"/>
</g>
</svg>
